Coordinates
version=1
nRows=54
nColumns=12
inDegrees=yes

Units are S.I. units (second, meters, Newtons, ...)
Angles are in degrees

endheader
time	SC_y	SC_z	SC_x	AC_y	AC_z	AC_x	GH_y	GH_z	GH_yy	EL_x	PS_y
       0.0              -25.19         -2.484          55.58          44.91         -8.918         -9.632          -82.6          53.29          61.77          132.2          41.21
   0.04277               -25.2         -2.478          55.58          44.91         -8.919          -9.63         -82.57          53.29          61.78          132.2          41.23
   0.08553               -25.2         -2.472          55.59          44.91         -8.919         -9.628         -82.55           53.3          61.79          132.2          41.25
    0.1283              -25.21         -2.465          55.59          44.92          -8.92         -9.625         -82.52           53.3          61.81          132.2          41.27
    0.1711              -25.21         -2.457           55.6          44.92         -8.921         -9.623         -82.49          53.31          61.82          132.2          41.29
    0.2138              -25.22          -2.45           55.6          44.92         -8.921          -9.62         -82.46          53.31          61.84          132.2          41.31
    0.2566              -25.22         -2.441          55.61          44.93         -8.922         -9.618         -82.43          53.32          61.85          132.2          41.33
    0.2994              -25.23         -2.432          55.61          44.93         -8.923         -9.615          -82.4          53.33          61.87          132.1          41.36
    0.3421              -25.24         -2.423          55.62          44.94         -8.924         -9.612         -82.36          53.34          61.89          132.1          41.38
    0.3849              -25.24         -2.413          55.63          44.94         -8.925         -9.608         -82.32          53.34           61.9          132.1          41.41
    0.4277              -25.25         -2.402          55.63          44.95         -8.926         -9.605         -82.28          53.35          61.93          132.1          41.44
    0.4704              -25.26          -2.39          55.64          44.96         -8.927         -9.601         -82.23          53.36          61.95          132.1          41.47
    0.5132              -25.27         -2.377          55.65          44.96         -8.928         -9.596         -82.18          53.37          61.97          132.0          41.51
     0.556              -25.28         -2.364          55.66          44.97          -8.93         -9.592         -82.13          53.39           62.0          132.0          41.55
    0.5987              -25.29         -2.349          55.67          44.98         -8.931         -9.587         -82.07           53.4          62.03          132.0          41.59
    0.6415               -25.3         -2.333          55.68          44.99         -8.933         -9.582         -82.01          53.41          62.06          131.9          41.63
    0.6843              -25.32         -2.315          55.69           45.0         -8.934         -9.576         -81.94          53.43          62.09          131.9          41.68
     0.727              -25.33         -2.296           55.7          45.01         -8.936         -9.569         -81.87          53.44          62.12          131.9          41.74
    0.7698              -25.34         -2.275          55.72          45.02         -8.938         -9.562         -81.79          53.46          62.16          131.8          41.79
    0.8126              -25.36         -2.252          55.73          45.03          -8.94         -9.555          -81.7          53.48          62.21          131.8          41.86
    0.8553              -25.38         -2.227          55.75          45.04         -8.943         -9.547          -81.6           53.5          62.25          131.7          41.93
    0.8981               -25.4           -2.2          55.77          45.06         -8.945         -9.537          -81.5          53.52          62.31          131.7           42.0
    0.9409              -25.42         -2.169          55.79          45.07         -8.948         -9.527         -81.38          53.55          62.36          131.6          42.09
    0.9836              -25.45         -2.136          55.81          45.09         -8.951         -9.516         -81.25          53.57          62.43          131.5          42.18
     1.026              -25.47         -2.098          55.84          45.11         -8.955         -9.504          -81.1          53.61           62.5          131.5          42.29
     1.069               -25.5         -2.056          55.87          45.14         -8.959          -9.49         -80.94          53.64          62.58          131.4          42.41
     1.112              -25.54         -2.009           55.9          45.16         -8.963         -9.474         -80.76          53.68          62.66          131.3          42.54
     1.155              -25.58         -1.957          55.93          45.19         -8.968         -9.457         -80.56          53.72          62.76          131.2          42.68
     1.197              -25.62         -1.897          55.97          45.22         -8.974         -9.437         -80.33          53.77          62.88          131.1          42.85
      1.24              -25.67         -1.829          56.02          45.26         -8.981         -9.414         -80.07          53.83           63.0          130.9          43.04
     1.283              -25.72         -1.752          56.07           45.3         -8.988         -9.389         -79.77          53.89          63.15          130.8          43.25
     1.326              -25.79         -1.664          56.13          45.35         -8.996         -9.359         -79.42          53.97          63.31          130.6           43.5
     1.369              -25.86         -1.561           56.2           45.4         -9.006         -9.325         -79.03          54.05          63.51          130.4          43.79
     1.411              -25.95         -1.442          56.28          45.46         -9.018         -9.286         -78.57          54.15          63.73          130.1          44.12
     1.454              -26.05         -1.303          56.37          45.54         -9.031         -9.239         -78.03          54.27          63.99          129.9          44.51
     1.497              -26.17         -1.139          56.48          45.63         -9.047         -9.185          -77.4           54.4           64.3          129.5          44.96
      1.54              -26.31        -0.9446          56.61          45.73         -9.065          -9.12         -76.64          54.56          64.67          129.1          45.51
     1.582              -26.48        -0.7111          56.77          45.86         -9.088         -9.042         -75.74          54.76          65.11          128.7          46.16
     1.625              -26.69        -0.4285          56.96          46.01         -9.115         -8.948         -74.65          54.99          65.64          128.1          46.95
     1.668              -26.94       -0.08338          57.19          46.19         -9.148         -8.834         -73.31          55.28          66.29          127.4          47.91
     1.711              -27.25         0.3426          57.48          46.42         -9.188         -8.692         -71.67          55.63          67.09          126.5           49.1
     1.753              -27.63         0.8738          57.84          46.71         -9.239         -8.515         -69.61          56.07          68.09          125.5          50.58
     1.796              -28.12          1.543          58.29          47.07         -9.303         -8.293         -67.03          56.63          69.35          124.1          52.45
     1.839              -28.74          2.394          58.86          47.52         -9.384          -8.01         -63.74          57.33          70.95          122.4          54.82
     1.882              -29.53          3.483           59.6          48.11         -9.488         -7.648         -59.53          58.24           73.0          120.2          57.86
     1.925              -30.55           4.88          60.54          48.86         -9.622         -7.183         -54.12          59.39          75.63          117.4          61.76
     1.967              -31.84          6.665          61.74          49.82         -9.793          -6.59         -47.22          60.88          78.99          113.8          66.74
      2.01              -33.47          8.909          63.25          51.02         -10.01         -5.843         -38.54          62.74          83.22          109.3           73.0
     2.053              -35.46          11.64           65.1          52.49         -10.27         -4.934         -27.97          65.01          88.37          103.7          80.63
     2.096              -37.77          14.81          67.23           54.2         -10.57          -3.88         -15.71          67.64          94.34          97.34          89.48
     2.138              -40.26          18.25          69.54          56.04          -10.9         -2.739         -2.437          70.48          100.8          90.42          99.06
     2.181              -42.76          21.68          71.86          57.88         -11.23         -1.597          10.84          73.33          107.3          83.49          108.6
     2.224              -45.06          24.85          73.99          59.59         -11.53         -0.543          23.09          75.96          113.2           77.1          117.5
     2.267              -47.05          27.58          75.84          61.05         -11.79         0.3664          33.67          78.23          118.4          71.58          125.1
